<?xml version="1.0" encoding="UTF-8"?><svg xmlns="http://www.w3.org/2000/svg" xmlns:xlink="http://www.w3.org/1999/xlink" contentScriptType="application/ecmascript" contentStyleType="text/css" height="599px" preserveAspectRatio="none" style="width:1204px;height:599px;" version="1.1" viewBox="0 0 1204 599" width="1204px" zoomAndPan="magnify">
    <defs>
        <filter height="300%" id="f1kmzzvi1x7f8g" width="300%" x="-1" y="-1">
            <feGaussianBlur result="blurOut" stdDeviation="2.0"/>
            <feColorMatrix in="blurOut" result="blurOut2" type="matrix" values="0 0 0 0 0 0 0 0 0 0 0 0 0 0 0 0 0 0 .4 0"/>
            <feOffset dx="4.0" dy="4.0" in="blurOut2" result="blurOut3"/>
            <feBlend in="SourceGraphic" in2="blurOut3" mode="normal"/>
        </filter>
    </defs>
    <g>
        <!--cluster GIT Inbound Service-->
        <polygon fill="#FFFFFF" filter="url(#f1kmzzvi1x7f8g)" points="14,220,164,220,171,242.4883,642,242.4883,642,291,14,291,14,220" style="stroke: #000000; stroke-width: 2.0;"/>
        <line style="stroke: #000000; stroke-width: 2.0;" x1="14" x2="171" y1="242.4883" y2="242.4883"/>
        <text fill="#000000" font-family="sans-serif" font-size="14" font-weight="bold" lengthAdjust="spacingAndGlyphs" textLength="144" x="18" y="235.5352">GIT Inbound Service</text>
        <!--cluster Experiment Build Service-->
        <polygon fill="#FFFFFF" filter="url(#f1kmzzvi1x7f8g)" points="221,316,405,316,412,338.4883,864,338.4883,864,501,221,501,221,316" style="stroke: #000000; stroke-width: 2.0;"/>
        <line style="stroke: #000000; stroke-width: 2.0;" x1="221" x2="412" y1="338.4883" y2="338.4883"/>
        <text fill="#000000" font-family="sans-serif" font-size="14" font-weight="bold" lengthAdjust="spacingAndGlyphs" textLength="178" x="225" y="331.5352">Experiment Build Service</text>
        <!--cluster Templates-->
        <rect fill="#FFFFFF" filter="url(#f1kmzzvi1x7f8g)" height="81" style="stroke: #000000; stroke-width: 2.0;" width="627" x="229" y="412"/>
        <path d="M315,413 L315,421.4883 L305,431.4883 L229,431.4883 " fill="none" style="stroke: #000000; stroke-width: 2.0;"/>
        <text fill="#000000" font-family="sans-serif" font-size="14" font-weight="bold" lengthAdjust="spacingAndGlyphs" textLength="76" x="232" y="426.5352">Templates</text>
        <!--cluster ##3553-->
        <path d="M62,517 C62,514 64,512 67,512 C70,512 72,514 72,517 C72,514 74,512 77,512 C80,512 82,514 82,517 C82,514 84,512 87,512 C90,512 92,514 92,517 C92,514 94,512 97,512 C100,512 102,514 102,517 C102,514 104,512 107,512 C110,512 112,514 112,517 C112,514 114,512 117,512 C120,512 122,514 122,517 C122,514 124,512 127,512 C130,512 132,514 132,517 C132,514 134,512 137,512 C140,512 142,514 142,517 C142,514 144,512 147,512 C150,512 152,514 152,517 C152,514 154,512 157,512 C160,512 162,514 162,517 C162,514 164,512 167,512 C170,512 172,514 172,517 C172,514 174,512 177,512 C180,512 182,514 182,517 C182,514 184,512 187,512 C190,512 192,514 192,517 C192,514 194,512 197,512 C200,512 202,514 202,517 C202,514 204,512 207,512 C210,512 212,514 212,517 C212,514 214,512 217,512 C220,512 222,514 222,517 C222,514 224,512 227,512 C230,512 232,514 232,517 C232,514 234,512 237,512 C240,512 242,514 242,517 C242,514 244,512 247,512 C250,512 252,514 252,517 C252,514 254,512 257,512 C260,512 262,514 262,517 C262,514 264,512 267,512 C270,512 272,514 272,517 C272,514 274,512 277,512 C280,512 282,514 282,517 C282,514 284,512 287,512 C290,512 292,514 292,517 C292,514 294,512 297,512 C300,512 302,514 302,517 C302,514 304,512 307,512 C310,512 312,514 312,517 C312,514 314,512 317,512 C320,512 322,514 322,517 C322,514 324,512 327,512 C330,512 332,514 332,517 C332,514 334,512 337,512 C340,512 342,514 342,517 C342,514 344,512 347,512 C350,512 352,514 352,517 C352,514 354,512 357,512 C360,512 362,514 362,517 C362,514 364,512 367,512 C370,512 372,514 372,517 C372,514 374,512 377,512 C380,512 382,514 382,517 C382,514 384,512 387,512 C390,512 392,514 392,517 C392,514 394,512 397,512 C400,512 402,514 402,517 C402,514 404,512 407,512 C410,512 412,514 412,517 C412,514 414,512 417,512 C420,512 422,514 422,517 C422,514 424,512 427,512 C430,512 432,514 432,517 C432,514 434,512 437,512 C440,512 442,514 442,517 C442,514 444,512 447,512 C450,512 452,514 452,517 C452,514 454,512 457,512 C460,512 462,514 462,517 C462,514 464,512 467,512 C470,512 472,514 472,517 C472,514 474,512 477,512 C480,512 482,514 482,517 C482,514 484,512 487,512 C490,512 492,514 492,517 C492,514 494,512 497,512 C500,512 502,514 502,517 C502,514 504,512 507,512 C510,512 512,514 512,517 C512,514 514,512 517,512 C520,512 522,514 522,517 C522,514 524,512 527,512 C530,512 532,514 532,517 C532,514 534,512 537,512 C540,512 542,514 542,517 C542,514 544,512 547,512 C550,512 552,514 552,517 C552,514 554,512 557,512 C560,512 562,514 562,517 C562,514 564,512 567,512 C570,512 572,514 572,517 C572,514 574,512 577,512 C580,512 582,514 582,517 C582,514 584,512 587,512 C590,512 592,514 592,517 C592,514 594,512 597,512 C600,512 602,514 602,517 C602,514 604,512 607,512 C610,512 612,514 612,517 C612,514 614,512 617,512 C620,512 622,514 622,517 C622,514 624,512 627,512 C630,512 632,514 632,517 C632,514 634,512 637,512 C640,512 642,514 642,517 C642,514 644,512 647,512 C650,512 652,514 652,517 C652,514 654,512 657,512 C660,512 662,514 662,517 C662,514 664,512 667,512 C670,512 672,514 672,517 C672,514 674,512 677,512 C680,512 682,514 682,517 C682,514 684,512 687,512 C690,512 692,514 692,517 C692,514 694,512 697,512 C700,512 702,514 702,517 C702,514 704,512 707,512 C710,512 712,514 712,517 C712,514 714,512 717,512 C720,512 722,514 722,517 C722,514 724,512 727,512 C730,512 732,514 732,517 C732,514 734,512 737,512 C740,512 742,514 742,517 C742,514 744,512 747,512 C750,512 752,514 752,517 C752,514 754,512 757,512 C760,512 762,514 762,517 C762,514 764,512 767,512 C770,512 772,514 772,517 C772,514 774,512 777,512 C780,512 782,514 782,517 C782,514 784,512 787,512 C790,512 792,514 792,517 C792,514 794,512 797,512 C800,512 802,514 802,517 C802,514 804,512 807,512 C810,512 812,514 812,517 C812,514 814,512 817,512 C820,512 822,514 822,517 C822,514 824,512 827,512 C830,512 832,514 832,517 C832,514 834,512 837,512 C840,512 842,514 842,517 C842,514 844,512 847,512 C850,512 852,514 852,517 C852,514 854,512 857,512 C860,512 862,514 862,517 C862,514 864,512 867,512 C870,512 872,514 872,517 C872,514 874,512 877,512 C880,512 882,514 882,517 C882,514 884,512 887,512 C890,512 892,514 892,517 C892,514 894,512 897,512 C900,512 902,514 902,517 C902,514 904,512 907,512 C910,512 912,514 912,517 C912,514 914,512 917,512 C920,512 922,514 922,517 C922,514 924,512 927,512 C930,512 932,514 932,517 C932,514 934,512 937,512 C940,512 942,514 942,517 C942,514 944,512 947,512 C950,512 952,514 952,517 C952,514 954,512 957,512 C960,512 962,514 962,517 C962,514 964,512 967,512 C970,512 972,514 972,517 C972,514 974,512 977,512 C980,512 982,514 982,517 C982,514 984,512 987,512 C990,512 992,514 992,517 C992,514 994,512 997,512 C1000,512 1002,514 1002,517 C1002,514 1004,512 1007,512 C1010,512 1012,514 1012,517 C1012,514 1014,512 1017,512 C1020,512 1022,514 1022,517 C1022,514 1024,512 1027,512 C1030,512 1032,514 1032,517 C1032,514 1034,512 1037,512 C1040,512 1042,514 1042,517 C1042,514 1044,512 1047,512 C1050,512 1052,514 1052,517 C1052,514 1054,512 1057,512 C1060,512 1062,514 1062,517 C1062,514 1064,512 1067,512 C1070,512 1072,514 1072,517 C1072,514 1074,512 1077,512 C1080,512 1082,514 1082,517 C1082,514 1084,512 1087,512 C1090,512 1092,514 1092,517 C1092,514 1094,512 1097,512 C1100,512 1102,514 1102,517 C1102,514 1104,512 1107,512 C1110,512 1112,514 1112,517 C1112,514 1114,512 1117,512 C1120,512 1122,514 1122,517 C1122,514 1124,512 1127,512 C1130,512 1132,514 1132,517 C1132,514 1134,512 1137,512 C1140,512 1142,514 1142,517 C1142,514 1144,512 1147,512 C1150,512 1152,514 1152,517 C1152,514 1154,512 1157,512 C1160,512 1162,514 1162,517 C1162,514 1164,512 1167,512 C1170,512 1172,514 1172,517 C1172,514 1174,512 1177,512 C1180,512 1182,514 1182,517 C1182,514 1184,512 1187,512 C1190,512 1192,514 1192,517 C1195,517 1197,519 1197,522 C1197,525 1195,527 1192,527 C1195,527 1197,529 1197,532 C1197,535 1195,537 1192,537 C1195,537 1197,539 1197,542 C1197,545 1195,547 1192,547 C1195,547 1197,549 1197,552 C1197,555 1195,557 1192,557 C1195,557 1197,559 1197,562 C1197,565 1195,567 1192,567 C1195,567 1197,569 1197,572 C1197,575 1195,577 1192,577 C1195,577 1197,579 1197,582 C1197,585 1195,587 1192,587 C1192,590 1189,592 1187,592 C1184,592 1182,590 1182,587 C1182,590 1179,592 1177,592 C1174,592 1172,590 1172,587 C1172,590 1169,592 1167,592 C1164,592 1162,590 1162,587 C1162,590 1159,592 1157,592 C1154,592 1152,590 1152,587 C1152,590 1149,592 1147,592 C1144,592 1142,590 1142,587 C1142,590 1139,592 1137,592 C1134,592 1132,590 1132,587 C1132,590 1129,592 1127,592 C1124,592 1122,590 1122,587 C1122,590 1119,592 1117,592 C1114,592 1112,590 1112,587 C1112,590 1109,592 1107,592 C1104,592 1102,590 1102,587 C1102,590 1099,592 1097,592 C1094,592 1092,590 1092,587 C1092,590 1089,592 1087,592 C1084,592 1082,590 1082,587 C1082,590 1079,592 1077,592 C1074,592 1072,590 1072,587 C1072,590 1069,592 1067,592 C1064,592 1062,590 1062,587 C1062,590 1059,592 1057,592 C1054,592 1052,590 1052,587 C1052,590 1049,592 1047,592 C1044,592 1042,590 1042,587 C1042,590 1039,592 1037,592 C1034,592 1032,590 1032,587 C1032,590 1029,592 1027,592 C1024,592 1022,590 1022,587 C1022,590 1019,592 1017,592 C1014,592 1012,590 1012,587 C1012,590 1009,592 1007,592 C1004,592 1002,590 1002,587 C1002,590 999,592 997,592 C994,592 992,590 992,587 C992,590 989,592 987,592 C984,592 982,590 982,587 C982,590 979,592 977,592 C974,592 972,590 972,587 C972,590 969,592 967,592 C964,592 962,590 962,587 C962,590 959,592 957,592 C954,592 952,590 952,587 C952,590 949,592 947,592 C944,592 942,590 942,587 C942,590 939,592 937,592 C934,592 932,590 932,587 C932,590 929,592 927,592 C924,592 922,590 922,587 C922,590 919,592 917,592 C914,592 912,590 912,587 C912,590 909,592 907,592 C904,592 902,590 902,587 C902,590 899,592 897,592 C894,592 892,590 892,587 C892,590 889,592 887,592 C884,592 882,590 882,587 C882,590 879,592 877,592 C874,592 872,590 872,587 C872,590 869,592 867,592 C864,592 862,590 862,587 C862,590 859,592 857,592 C854,592 852,590 852,587 C852,590 849,592 847,592 C844,592 842,590 842,587 C842,590 839,592 837,592 C834,592 832,590 832,587 C832,590 829,592 827,592 C824,592 822,590 822,587 C822,590 819,592 817,592 C814,592 812,590 812,587 C812,590 809,592 807,592 C804,592 802,590 802,587 C802,590 799,592 797,592 C794,592 792,590 792,587 C792,590 789,592 787,592 C784,592 782,590 782,587 C782,590 779,592 777,592 C774,592 772,590 772,587 C772,590 769,592 767,592 C764,592 762,590 762,587 C762,590 759,592 757,592 C754,592 752,590 752,587 C752,590 749,592 747,592 C744,592 742,590 742,587 C742,590 739,592 737,592 C734,592 732,590 732,587 C732,590 729,592 727,592 C724,592 722,590 722,587 C722,590 719,592 717,592 C714,592 712,590 712,587 C712,590 709,592 707,592 C704,592 702,590 702,587 C702,590 699,592 697,592 C694,592 692,590 692,587 C692,590 689,592 687,592 C684,592 682,590 682,587 C682,590 679,592 677,592 C674,592 672,590 672,587 C672,590 669,592 667,592 C664,592 662,590 662,587 C662,590 659,592 657,592 C654,592 652,590 652,587 C652,590 649,592 647,592 C644,592 642,590 642,587 C642,590 639,592 637,592 C634,592 632,590 632,587 C632,590 629,592 627,592 C624,592 622,590 622,587 C622,590 619,592 617,592 C614,592 612,590 612,587 C612,590 609,592 607,592 C604,592 602,590 602,587 C602,590 599,592 597,592 C594,592 592,590 592,587 C592,590 589,592 587,592 C584,592 582,590 582,587 C582,590 579,592 577,592 C574,592 572,590 572,587 C572,590 569,592 567,592 C564,592 562,590 562,587 C562,590 559,592 557,592 C554,592 552,590 552,587 C552,590 549,592 547,592 C544,592 542,590 542,587 C542,590 539,592 537,592 C534,592 532,590 532,587 C532,590 529,592 527,592 C524,592 522,590 522,587 C522,590 519,592 517,592 C514,592 512,590 512,587 C512,590 509,592 507,592 C504,592 502,590 502,587 C502,590 499,592 497,592 C494,592 492,590 492,587 C492,590 489,592 487,592 C484,592 482,590 482,587 C482,590 479,592 477,592 C474,592 472,590 472,587 C472,590 469,592 467,592 C464,592 462,590 462,587 C462,590 459,592 457,592 C454,592 452,590 452,587 C452,590 449,592 447,592 C444,592 442,590 442,587 C442,590 439,592 437,592 C434,592 432,590 432,587 C432,590 429,592 427,592 C424,592 422,590 422,587 C422,590 419,592 417,592 C414,592 412,590 412,587 C412,590 409,592 407,592 C404,592 402,590 402,587 C402,590 399,592 397,592 C394,592 392,590 392,587 C392,590 389,592 387,592 C384,592 382,590 382,587 C382,590 379,592 377,592 C374,592 372,590 372,587 C372,590 369,592 367,592 C364,592 362,590 362,587 C362,590 359,592 357,592 C354,592 352,590 352,587 C352,590 349,592 347,592 C344,592 342,590 342,587 C342,590 339,592 337,592 C334,592 332,590 332,587 C332,590 329,592 327,592 C324,592 322,590 322,587 C322,590 319,592 317,592 C314,592 312,590 312,587 C312,590 309,592 307,592 C304,592 302,590 302,587 C302,590 299,592 297,592 C294,592 292,590 292,587 C292,590 289,592 287,592 C284,592 282,590 282,587 C282,590 279,592 277,592 C274,592 272,590 272,587 C272,590 269,592 267,592 C264,592 262,590 262,587 C262,590 259,592 257,592 C254,592 252,590 252,587 C252,590 249,592 247,592 C244,592 242,590 242,587 C242,590 239,592 237,592 C234,592 232,590 232,587 C232,590 229,592 227,592 C224,592 222,590 222,587 C222,590 219,592 217,592 C214,592 212,590 212,587 C212,590 209,592 207,592 C204,592 202,590 202,587 C202,590 199,592 197,592 C194,592 192,590 192,587 C192,590 189,592 187,592 C184,592 182,590 182,587 C182,590 179,592 177,592 C174,592 172,590 172,587 C172,590 169,592 167,592 C164,592 162,590 162,587 C162,590 159,592 157,592 C154,592 152,590 152,587 C152,590 149,592 147,592 C144,592 142,590 142,587 C142,590 139,592 137,592 C134,592 132,590 132,587 C132,590 129,592 127,592 C124,592 122,590 122,587 C122,590 119,592 117,592 C114,592 112,590 112,587 C112,590 109,592 107,592 C104,592 102,590 102,587 C102,590 99,592 97,592 C94,592 92,590 92,587 C92,590 89,592 87,592 C84,592 82,590 82,587 C82,590 79,592 77,592 C74,592 72,590 72,587 C72,590 69,592 67,592 C64,592 62,590 62,587 C59,587 57,585 57,582 C57,579 59,577 62,577 C59,577 57,575 57,572 C57,569 59,567 62,567 C59,567 57,565 57,562 C57,559 59,557 62,557 C59,557 57,555 57,552 C57,549 59,547 62,547 C59,547 57,545 57,542 C57,539 59,537 62,537 C59,537 57,535 57,532 C57,529 59,527 62,527 C59,527 57,525 57,522 C57,519 59,517 62,517 " fill="#FFFFFF" filter="url(#f1kmzzvi1x7f8g)" style="stroke: #000000; stroke-width: 2.0;"/>
        <!--cluster Staging Server-->
        <polygon fill="#FFFFFF" filter="url(#f1kmzzvi1x7f8g)" points="818,518,927,518,934,540.4883,1181,540.4883,1181,589,818,589,818,518" style="stroke: #000000; stroke-width: 2.0;"/>
        <line style="stroke: #000000; stroke-width: 2.0;" x1="818" x2="934" y1="540.4883" y2="540.4883"/>
        <text fill="#000000" font-family="sans-serif" font-size="14" font-weight="bold" lengthAdjust="spacingAndGlyphs" textLength="103" x="822" y="533.5352">Staging Server</text>
        <!--cluster Production Server-->
        <polygon fill="#FFFFFF" filter="url(#f1kmzzvi1x7f8g)" points="67,518,200,518,207,540.4883,472,540.4883,472,589,67,589,67,518" style="stroke: #000000; stroke-width: 2.0;"/>
        <line style="stroke: #000000; stroke-width: 2.0;" x1="67" x2="207" y1="540.4883" y2="540.4883"/>
        <text fill="#000000" font-family="sans-serif" font-size="14" font-weight="bold" lengthAdjust="spacingAndGlyphs" textLength="127" x="71" y="533.5352">Production Server</text>
        <!--cluster Mobile Devices-->
        <polygon fill="#FFFFFF" filter="url(#f1kmzzvi1x7f8g)" points="659,518,774,518,781,540.4883,799,540.4883,799,589,659,589,659,518" style="stroke: #000000; stroke-width: 2.0;"/>
        <line style="stroke: #000000; stroke-width: 2.0;" x1="659" x2="781" y1="540.4883" y2="540.4883"/>
        <text fill="#000000" font-family="sans-serif" font-size="14" font-weight="bold" lengthAdjust="spacingAndGlyphs" textLength="109" x="663" y="533.5352">Mobile Devices</text>
        <!--cluster Desktop Devices-->
        <polygon fill="#FFFFFF" filter="url(#f1kmzzvi1x7f8g)" points="491,518,617,518,624,540.4883,641,540.4883,641,589,491,589,491,518" style="stroke: #000000; stroke-width: 2.0;"/>
        <line style="stroke: #000000; stroke-width: 2.0;" x1="491" x2="624" y1="540.4883" y2="540.4883"/>
        <text fill="#000000" font-family="sans-serif" font-size="14" font-weight="bold" lengthAdjust="spacingAndGlyphs" textLength="120" x="495" y="533.5352">Desktop Devices</text>
        <!--entity JSON Validator-->
        <rect fill="#FEFECE" filter="url(#f1kmzzvi1x7f8g)" height="36.4883" style="stroke: #A80036; stroke-width: 1.5;" width="119" x="22.5" y="247"/>
        <rect fill="#FEFECE" height="5" style="stroke: #A80036; stroke-width: 1.5;" width="10" x="17.5" y="252"/>
        <rect fill="#FEFECE" height="5" style="stroke: #A80036; stroke-width: 1.5;" width="10" x="17.5" y="273.4883"/>
        <text fill="#000000" font-family="sans-serif" font-size="14" lengthAdjust="spacingAndGlyphs" textLength="99" x="32.5" y="270.5352">JSON Validator</text>
        <!--entity JSON to XML-->
        <rect fill="#FEFECE" filter="url(#f1kmzzvi1x7f8g)" height="36.4883" style="stroke: #A80036; stroke-width: 1.5;" width="103" x="176.5" y="247"/>
        <rect fill="#FEFECE" height="5" style="stroke: #A80036; stroke-width: 1.5;" width="10" x="171.5" y="252"/>
        <rect fill="#FEFECE" height="5" style="stroke: #A80036; stroke-width: 1.5;" width="10" x="171.5" y="273.4883"/>
        <text fill="#000000" font-family="sans-serif" font-size="14" lengthAdjust="spacingAndGlyphs" textLength="83" x="186.5" y="270.5352">JSON to XML</text>
        <!--entity XML Validator-->
        <rect fill="#FEFECE" filter="url(#f1kmzzvi1x7f8g)" height="36.4883" style="stroke: #A80036; stroke-width: 1.5;" width="114" x="315" y="247"/>
        <rect fill="#FEFECE" height="5" style="stroke: #A80036; stroke-width: 1.5;" width="10" x="310" y="252"/>
        <rect fill="#FEFECE" height="5" style="stroke: #A80036; stroke-width: 1.5;" width="10" x="310" y="273.4883"/>
        <text fill="#000000" font-family="sans-serif" font-size="14" lengthAdjust="spacingAndGlyphs" textLength="94" x="325" y="270.5352">XML Validator</text>
        <!--entity Experiment Definition-->
        <rect fill="#FEFECE" filter="url(#f1kmzzvi1x7f8g)" height="36.4883" style="stroke: #A80036; stroke-width: 1.5;" width="170" x="464" y="247"/>
        <rect fill="#FEFECE" height="5" style="stroke: #A80036; stroke-width: 1.5;" width="10" x="459" y="252"/>
        <rect fill="#FEFECE" height="5" style="stroke: #A80036; stroke-width: 1.5;" width="10" x="459" y="273.4883"/>
        <text fill="#000000" font-family="sans-serif" font-size="14" lengthAdjust="spacingAndGlyphs" textLength="150" x="474" y="270.5352">Experiment Definition</text>
        <!--entity Experiment Compiler-->
        <rect fill="#FEFECE" filter="url(#f1kmzzvi1x7f8g)" height="36.4883" style="stroke: #A80036; stroke-width: 1.5;" width="166" x="466" y="343"/>
        <rect fill="#FEFECE" height="5" style="stroke: #A80036; stroke-width: 1.5;" width="10" x="461" y="348"/>
        <rect fill="#FEFECE" height="5" style="stroke: #A80036; stroke-width: 1.5;" width="10" x="461" y="369.4883"/>
        <text fill="#000000" font-family="sans-serif" font-size="14" lengthAdjust="spacingAndGlyphs" textLength="146" x="476" y="366.5352">Experiment Compiler</text>
        <!--entity WebApp-->
        <polygon fill="#FEFECE" filter="url(#f1kmzzvi1x7f8g)" points="601.5,449,611.5,439,698.5,439,698.5,475.4883,688.5,485.4883,601.5,485.4883,601.5,449" style="stroke: #000000; stroke-width: 1.5;"/>
        <line style="stroke: #000000; stroke-width: 1.5;" x1="688.5" x2="697.5" y1="449" y2="440"/>
        <line style="stroke: #000000; stroke-width: 1.5;" x1="601.5" x2="688.5" y1="449" y2="449"/>
        <line style="stroke: #000000; stroke-width: 1.5;" x1="688.5" x2="688.5" y1="449" y2="485.4883"/>
        <text fill="#000000" font-family="sans-serif" font-size="14" lengthAdjust="spacingAndGlyphs" textLength="57" x="616.5" y="472.5352">WebApp</text>
        <!--entity MobileApp-->
        <polygon fill="#FEFECE" filter="url(#f1kmzzvi1x7f8g)" points="734,449,744,439,848,439,848,475.4883,838,485.4883,734,485.4883,734,449" style="stroke: #000000; stroke-width: 1.5;"/>
        <line style="stroke: #000000; stroke-width: 1.5;" x1="838" x2="847" y1="449" y2="440"/>
        <line style="stroke: #000000; stroke-width: 1.5;" x1="734" x2="838" y1="449" y2="449"/>
        <line style="stroke: #000000; stroke-width: 1.5;" x1="838" x2="838" y1="449" y2="485.4883"/>
        <text fill="#000000" font-family="sans-serif" font-size="14" lengthAdjust="spacingAndGlyphs" textLength="74" x="749" y="472.5352">MobileApp</text>
        <!--entity DesktopApp-->
        <polygon fill="#FEFECE" filter="url(#f1kmzzvi1x7f8g)" points="442,449,452,439,566,439,566,475.4883,556,485.4883,442,485.4883,442,449" style="stroke: #000000; stroke-width: 1.5;"/>
        <line style="stroke: #000000; stroke-width: 1.5;" x1="556" x2="565" y1="449" y2="440"/>
        <line style="stroke: #000000; stroke-width: 1.5;" x1="442" x2="556" y1="449" y2="449"/>
        <line style="stroke: #000000; stroke-width: 1.5;" x1="556" x2="556" y1="449" y2="485.4883"/>
        <text fill="#000000" font-family="sans-serif" font-size="14" lengthAdjust="spacingAndGlyphs" textLength="84" x="457" y="472.5352">DesktopApp</text>
        <!--entity AdministrationApp-->
        <polygon fill="#FEFECE" filter="url(#f1kmzzvi1x7f8g)" points="237,449,247,439,407,439,407,475.4883,397,485.4883,237,485.4883,237,449" style="stroke: #000000; stroke-width: 1.5;"/>
        <line style="stroke: #000000; stroke-width: 1.5;" x1="397" x2="406" y1="449" y2="440"/>
        <line style="stroke: #000000; stroke-width: 1.5;" x1="237" x2="397" y1="449" y2="449"/>
        <line style="stroke: #000000; stroke-width: 1.5;" x1="397" x2="397" y1="449" y2="485.4883"/>
        <text fill="#000000" font-family="sans-serif" font-size="14" lengthAdjust="spacingAndGlyphs" textLength="130" x="252" y="472.5352">AdministrationApp</text>
        <!--entity Staging Instance-->
        <rect fill="#FEFECE" filter="url(#f1kmzzvi1x7f8g)" height="36.4883" style="stroke: #A80036; stroke-width: 1.5;" width="133" x="1039.5" y="545"/>
        <rect fill="#FEFECE" height="5" style="stroke: #A80036; stroke-width: 1.5;" width="10" x="1034.5" y="550"/>
        <rect fill="#FEFECE" height="5" style="stroke: #A80036; stroke-width: 1.5;" width="10" x="1034.5" y="571.4883"/>
        <text fill="#000000" font-family="sans-serif" font-size="14" lengthAdjust="spacingAndGlyphs" textLength="113" x="1049.5" y="568.5352">Staging Instance</text>
        <!--entity Staging Administration-->
        <rect fill="#FEFECE" filter="url(#f1kmzzvi1x7f8g)" height="36.4883" style="stroke: #A80036; stroke-width: 1.5;" width="178" x="826" y="545"/>
        <rect fill="#FEFECE" height="5" style="stroke: #A80036; stroke-width: 1.5;" width="10" x="821" y="550"/>
        <rect fill="#FEFECE" height="5" style="stroke: #A80036; stroke-width: 1.5;" width="10" x="821" y="571.4883"/>
        <text fill="#000000" font-family="sans-serif" font-size="14" lengthAdjust="spacingAndGlyphs" textLength="158" x="836" y="568.5352">Staging Administration</text>
        <!--entity ProductionInstance-->
        <rect fill="#FEFECE" filter="url(#f1kmzzvi1x7f8g)" height="36.4883" style="stroke: #A80036; stroke-width: 1.5;" width="152" x="312" y="545"/>
        <rect fill="#FEFECE" height="5" style="stroke: #A80036; stroke-width: 1.5;" width="10" x="307" y="550"/>
        <rect fill="#FEFECE" height="5" style="stroke: #A80036; stroke-width: 1.5;" width="10" x="307" y="571.4883"/>
        <text fill="#000000" font-family="sans-serif" font-size="14" lengthAdjust="spacingAndGlyphs" textLength="132" x="322" y="568.5352">ProductionInstance</text>
        <!--entity Production Administration-->
        <rect fill="#FEFECE" filter="url(#f1kmzzvi1x7f8g)" height="36.4883" style="stroke: #A80036; stroke-width: 1.5;" width="201" x="75.5" y="545"/>
        <rect fill="#FEFECE" height="5" style="stroke: #A80036; stroke-width: 1.5;" width="10" x="70.5" y="550"/>
        <rect fill="#FEFECE" height="5" style="stroke: #A80036; stroke-width: 1.5;" width="10" x="70.5" y="571.4883"/>
        <text fill="#000000" font-family="sans-serif" font-size="14" lengthAdjust="spacingAndGlyphs" textLength="181" x="85.5" y="568.5352">Production Administration</text>
        <!--entity MoblieInstance-->
        <rect fill="#FEFECE" filter="url(#f1kmzzvi1x7f8g)" height="36.4883" style="stroke: #A80036; stroke-width: 1.5;" width="123" x="667.5" y="545"/>
        <rect fill="#FEFECE" height="5" style="stroke: #A80036; stroke-width: 1.5;" width="10" x="662.5" y="550"/>
        <rect fill="#FEFECE" height="5" style="stroke: #A80036; stroke-width: 1.5;" width="10" x="662.5" y="571.4883"/>
        <text fill="#000000" font-family="sans-serif" font-size="14" lengthAdjust="spacingAndGlyphs" textLength="103" x="677.5" y="568.5352">MoblieInstance</text>
        <!--entity DesktopInstance-->
        <rect fill="#FEFECE" filter="url(#f1kmzzvi1x7f8g)" height="36.4883" style="stroke: #A80036; stroke-width: 1.5;" width="133" x="499.5" y="545"/>
        <rect fill="#FEFECE" height="5" style="stroke: #A80036; stroke-width: 1.5;" width="10" x="494.5" y="550"/>
        <rect fill="#FEFECE" height="5" style="stroke: #A80036; stroke-width: 1.5;" width="10" x="494.5" y="571.4883"/>
        <text fill="#000000" font-family="sans-serif" font-size="14" lengthAdjust="spacingAndGlyphs" textLength="113" x="509.5" y="568.5352">DesktopInstance</text>
        <!--entity JSON File-->
        <rect fill="#FEFECE" filter="url(#f1kmzzvi1x7f8g)" height="36.4883" style="stroke: #A80036; stroke-width: 1.5;" width="81" x="129.5" y="151"/>
        <rect fill="#FEFECE" height="5" style="stroke: #A80036; stroke-width: 1.5;" width="10" x="124.5" y="156"/>
        <rect fill="#FEFECE" height="5" style="stroke: #A80036; stroke-width: 1.5;" width="10" x="124.5" y="177.4883"/>
        <text fill="#000000" font-family="sans-serif" font-size="14" lengthAdjust="spacingAndGlyphs" textLength="61" x="139.5" y="174.5352">JSON File</text>
        <!--entity XML File-->
        <rect fill="#FEFECE" filter="url(#f1kmzzvi1x7f8g)" height="36.4883" style="stroke: #A80036; stroke-width: 1.5;" width="76" x="334" y="151"/>
        <rect fill="#FEFECE" height="5" style="stroke: #A80036; stroke-width: 1.5;" width="10" x="329" y="156"/>
        <rect fill="#FEFECE" height="5" style="stroke: #A80036; stroke-width: 1.5;" width="10" x="329" y="177.4883"/>
        <text fill="#000000" font-family="sans-serif" font-size="14" lengthAdjust="spacingAndGlyphs" textLength="56" x="344" y="174.5352">XML File</text>
        <!--entity Stimuli Directory-->
        <rect fill="#FEFECE" filter="url(#f1kmzzvi1x7f8g)" height="36.4883" style="stroke: #A80036; stroke-width: 1.5;" width="133" x="463.5" y="151"/>
        <rect fill="#FEFECE" height="5" style="stroke: #A80036; stroke-width: 1.5;" width="10" x="458.5" y="156"/>
        <rect fill="#FEFECE" height="5" style="stroke: #A80036; stroke-width: 1.5;" width="10" x="458.5" y="177.4883"/>
        <text fill="#000000" font-family="sans-serif" font-size="14" lengthAdjust="spacingAndGlyphs" textLength="113" x="473.5" y="174.5352">Stimuli Directory</text>
        <!--entity Designer-->
        <ellipse cx="372" cy="18" fill="#FEFECE" filter="url(#f1kmzzvi1x7f8g)" rx="8" ry="8" style="stroke: #A80036; stroke-width: 2.0;"/>
        <path d="M372,26 L372,53 M359,34 L385,34 M372,53 L359,68 M372,53 L385,68 " fill="#FEFECE" filter="url(#f1kmzzvi1x7f8g)" style="stroke: #A80036; stroke-width: 2.0;"/>
        <text fill="#000000" font-family="sans-serif" font-size="14" lengthAdjust="spacingAndGlyphs" textLength="61" x="341.5" y="88.5352">Designer</text>
        <path d="M153.4479,187.0569 C137.8144,204.1115 114.4839,229.5631 98.7771,246.6977 " fill="none" style="stroke: #A80036; stroke-width: 1.0;"/>
        <path d="M141.5977,265 C153.1855,265 164.7733,265 176.3611,265 " fill="none" style="stroke: #A80036; stroke-width: 1.0;"/>
        <path d="M372,187.0569 C372,204.1115 372,229.5631 372,246.6977 " fill="none" style="stroke: #A80036; stroke-width: 1.0;"/>
        <path d="M279.75,265 C291.4014,265 303.0527,265 314.7041,265 " fill="none" style="stroke: #A80036; stroke-width: 1.0;"/>
        <path d="M429.041,265 C440.5996,265 452.1581,265 463.7167,265 " fill="none" style="stroke: #A80036; stroke-width: 1.0;"/>
        <path d="M533.5738,187.0569 C536.9492,204.1115 541.9864,229.5631 545.3777,246.6977 " fill="none" style="stroke: #A80036; stroke-width: 1.0;"/>
        <path d="M549,283.0569 C549,300.1115 549,325.5631 549,342.6977 " fill="none" style="stroke: #A80036; stroke-width: 1.0;"/>
        <path d="M567.0568,379.0568 C583.7385,395.7385 608.6109,420.6109 626.7672,438.7672 " fill="none" style="stroke: #A80036; stroke-width: 1.0;"/>
        <path d="M624.7361,379.082 C653.9675,387.3516 687.231,398.3788 716,412 C731.5582,419.3663 747.5935,429.6338 760.8232,438.9492 " fill="none" style="stroke: #A80036; stroke-width: 1.0;"/>
        <path d="M540.9549,379.0568 C533.5224,395.7385 522.4407,420.6109 514.3513,438.7672 " fill="none" style="stroke: #A80036; stroke-width: 1.0;"/>
        <path d="M503.0724,379.103 C479.573,388.5639 450.5994,400.5353 425,412 C406.133,420.4496 385.5965,430.2858 367.8606,438.9876 " fill="none" style="stroke: #A80036; stroke-width: 1.0;"/>
        <path d="M682.2601,485.1162 C692.8317,491.4738 704.9648,497.5611 717,501 C782.1979,519.6296 957.1452,490.2089 1022,510 C1045.2547,517.0964 1068.3751,532.4538 1084.4547,544.8193 " fill="none" style="stroke: #A80036; stroke-width: 1.0;"/>
        <path d="M372.6067,485.053 C388.9838,491.4496 407.4531,497.5752 425,501 C508.3398,517.2663 724.519,489.8256 807,510 C835.6061,516.9969 865.4637,532.3643 886.5162,544.7591 " fill="none" style="stroke: #A80036; stroke-width: 1.0;"/>
        <path d="M617.4586,485.0965 C607.2017,491.2901 595.5294,497.2904 584,501 C541.0992,514.8034 526.0688,496.7301 483,510 C457.9121,517.7298 432.0606,532.6907 413.6711,544.7514 " fill="none" style="stroke: #A80036; stroke-width: 1.0;"/>
        <path d="M288.5047,485.1714 C262.238,503.3422 226.2066,528.268 202.065,544.9687 " fill="none" style="stroke: #A80036; stroke-width: 1.0;"/>
        <path d="M776.7759,485.1714 C765.6216,503.3422 750.3206,528.268 740.0687,544.9687 " fill="none" style="stroke: #A80036; stroke-width: 1.0;"/>
        <path d="M518.2241,485.1714 C529.3784,503.3422 544.6794,528.268 554.9313,544.9687 " fill="none" style="stroke: #A80036; stroke-width: 1.0;"/>
        <path d="M341.3205,67.6495 C304.7307,89.2955 243.6965,125.4023 205.2145,148.1676 " fill="none" style="stroke: #A80036; stroke-width: 1.0;"/>
        <polygon fill="#A80036" points="200.6366,150.8759,210.4193,149.736,204.9399,148.33,206.3459,142.8507,200.6366,150.8759" style="stroke: #A80036; stroke-width: 1.0;"/>
        <path d="M372,91.2953 C372,109.5571 372,130.2858 372,145.7383 " fill="none" style="stroke: #A80036; stroke-width: 1.0;"/>
        <polygon fill="#A80036" points="372,150.7652,376,141.7652,372,145.7652,368,141.7652,372,150.7652" style="stroke: #A80036; stroke-width: 1.0;"/>
        <path d="M402.8391,72.8245 C431.5996,94.5769 474.1312,126.7448 501.9545,147.7884 " fill="none" style="stroke: #A80036; stroke-width: 1.0;"/>
        <polygon fill="#A80036" points="505.9495,150.8099,501.1843,142.1906,501.9617,147.7938,496.3585,148.5711,505.9495,150.8099" style="stroke: #A80036; stroke-width: 1.0;"/>
        <!--
@startuml

[JSON File]
[XML File]
[Stimuli Directory]

package "GIT Inbound Service" {
  [JSON File] - [JSON Validator]
  [JSON Validator] - [JSON to XML]
  [XML File] - [XML Validator]
  [JSON to XML] - [XML Validator]
  [XML Validator] - [Experiment Definition]
  [Stimuli Directory] - [Experiment Definition]

}
 
package "Experiment Build Service" {
frame "Templates" {
    node "WebApp"
    node "MobileApp"
    node "DesktopApp"
    node "AdministrationApp"
  }
  [Experiment Definition] - [Experiment Compiler]
  [Experiment Compiler] - [WebApp]
  [Experiment Compiler] - [MobileApp]
  [Experiment Compiler] - [DesktopApp]
  [Experiment Compiler] - [AdministrationApp]
}

cloud {
  package "Staging Server"{
    [WebApp] - [Staging Instance]
    [AdministrationApp] - [Staging Administration]
  }
  package "Production Server"{
    [WebApp] - [ProductionInstance]
    [AdministrationApp] - [Production Administration]
  }
  package "Mobile Devices" {
    [MobileApp] - [MoblieInstance]
  }

  package "Desktop Devices" {
    [DesktopApp] - [DesktopInstance]
  }
}



:Designer: - -> [JSON File]
:Designer: - -> [XML File]
:Designer: - -> [Stimuli Directory]

@enduml

PlantUML version 2017.11(Wed Apr 19 18:18:59 CEST 2017)
(GPL source distribution)
Java Runtime: Java(TM) SE Runtime Environment
JVM: Java HotSpot(TM) 64-Bit Server VM
Java Version: 1.8.0_45-b14
Operating System: Mac OS X
OS Version: 10.13.4
Default Encoding: UTF-8
Language: en
Country: US
-->
    </g>
</svg>
