<?xml version="1.0" encoding="UTF-8"?><svg xmlns="http://www.w3.org/2000/svg" xmlns:xlink="http://www.w3.org/1999/xlink" height="1104pt" style="width:1222px;height:1104px;" version="1.1" viewBox="0 0 1222 1104" width="1222pt">
    <defs>
        <filter height="300%" id="f1" width="300%" x="-1" y="-1">
            <feGaussianBlur result="blurOut" stdDeviation="2.0"/>
            <feColorMatrix in="blurOut" result="blurOut2" type="matrix" values="0 0 0 0 0 0 0 0 0 0 0 0 0 0 0 0 0 0 .4 0"/>
            <feOffset dx="4.0" dy="4.0" in="blurOut2" result="blurOut3"/>
            <feBlend in="SourceGraphic" in2="blurOut3" mode="normal"/>
        </filter>
    </defs>
    <g>
        <polygon fill="#FFFFFF" filter="url(#f1)" points="14,99,170,99,177,121.4883,934,121.4883,934,220,14,220,14,99" style="stroke: #000000; stroke-width: 2.0;"/>
        <line style="stroke: #000000; stroke-width: 2.0;" x1="14" x2="177" y1="121.4883" y2="121.4883"/>
        <text fill="#000000" font-family="sans-serif" font-size="14" font-weight="bold" lengthAdjust="spacingAndGlyphs" textLength="150" x="18" y="114.5352">Experiment Designer</text>
        <path d="M740,136 C740,126 833,126 833,126 C833,126 926,126 926,136 L926,202 C926,212 833,212 833,212 C833,212 740,212 740,202 L740,136 " fill="#FFFFFF" filter="url(#f1)" style="stroke: #000000; stroke-width: 2.0;"/>
        <path d="M740,136 C740,146 833,146 833,146 C833,146 926,146 926,136 " fill="none" style="stroke: #000000; stroke-width: 2.0;"/>
        <text fill="#000000" font-family="sans-serif" font-size="14" font-weight="bold" lengthAdjust="spacingAndGlyphs" textLength="66" x="800" y="160.5352">Database</text>
        <path d="M556,268 C556,265 558,263 561,263 C564,263 566,265 566,268 C566,265 568,263 571,263 C574,263 576,265 576,268 C576,265 578,263 581,263 C584,263 586,265 586,268 C586,265 588,263 591,263 C594,263 596,265 596,268 C596,265 598,263 601,263 C604,263 606,265 606,268 C606,265 608,263 611,263 C614,263 616,265 616,268 C616,265 618,263 621,263 C624,263 626,265 626,268 C626,265 628,263 631,263 C634,263 636,265 636,268 C636,265 638,263 641,263 C644,263 646,265 646,268 C646,265 648,263 651,263 C654,263 656,265 656,268 C656,265 658,263 661,263 C664,263 666,265 666,268 C666,265 668,263 671,263 C674,263 676,265 676,268 C676,265 678,263 681,263 C684,263 686,265 686,268 C686,265 688,263 691,263 C694,263 696,265 696,268 C696,265 698,263 701,263 C704,263 706,265 706,268 C706,265 708,263 711,263 C714,263 716,265 716,268 C716,265 718,263 721,263 C724,263 726,265 726,268 C726,265 728,263 731,263 C734,263 736,265 736,268 C736,265 738,263 741,263 C744,263 746,265 746,268 C749,268 751,270 751,273 C751,276 749,278 746,278 C749,278 751,280 751,283 C751,286 749,288 746,288 C749,288 751,290 751,293 C751,296 749,298 746,298 C749,298 751,300 751,303 C751,306 749,308 746,308 C746,311 743,313 741,313 C738,313 736,311 736,308 C736,311 733,313 731,313 C728,313 726,311 726,308 C726,311 723,313 721,313 C718,313 716,311 716,308 C716,311 713,313 711,313 C708,313 706,311 706,308 C706,311 703,313 701,313 C698,313 696,311 696,308 C696,311 693,313 691,313 C688,313 686,311 686,308 C686,311 683,313 681,313 C678,313 676,311 676,308 C676,311 673,313 671,313 C668,313 666,311 666,308 C666,311 663,313 661,313 C658,313 656,311 656,308 C656,311 653,313 651,313 C648,313 646,311 646,308 C646,311 643,313 641,313 C638,313 636,311 636,308 C636,311 633,313 631,313 C628,313 626,311 626,308 C626,311 623,313 621,313 C618,313 616,311 616,308 C616,311 613,313 611,313 C608,313 606,311 606,308 C606,311 603,313 601,313 C598,313 596,311 596,308 C596,311 593,313 591,313 C588,313 586,311 586,308 C586,311 583,313 581,313 C578,313 576,311 576,308 C576,311 573,313 571,313 C568,313 566,311 566,308 C566,311 563,313 561,313 C558,313 556,311 556,308 C553,308 551,306 551,303 C551,300 553,298 556,298 C553,298 551,296 551,293 C551,290 553,288 556,288 C553,288 551,286 551,283 C551,280 553,278 556,278 C553,278 551,276 551,273 C551,270 553,268 556,268 " fill="#FFFFFF" filter="url(#f1)" style="stroke: #000000; stroke-width: 2.0;"/>
        <polygon fill="#FFFFFF" filter="url(#f1)" points="570,329.5,759,329.5,766,351.9883,1215,351.9883,1215,570,570,570,570,329.5" style="stroke: #000000; stroke-width: 2.0;"/>
        <line style="stroke: #000000; stroke-width: 2.0;" x1="570" x2="766" y1="351.9883" y2="351.9883"/>
        <text fill="#000000" font-family="sans-serif" font-size="14" font-weight="bold" lengthAdjust="spacingAndGlyphs" textLength="183" x="574" y="345.0352">Experiment Build Process</text>
        <rect fill="#FFFFFF" filter="url(#f1)" height="205.5" style="stroke: #000000; stroke-width: 2.0;" width="462" x="745" y="356.5"/>
        <path d="M831,357.5 L831,365.9883 L821,375.9883 L745,375.9883 " fill="#FFFFFF" style="stroke: #000000; stroke-width: 2.0;"/>
        <text fill="#000000" font-family="sans-serif" font-size="14" font-weight="bold" lengthAdjust="spacingAndGlyphs" textLength="76" x="748" y="371.0352">Templates</text>
        <polygon fill="#FFFFFF" filter="url(#f1)" points="112,481,306,481,313,503.4883,562,503.4883,562,562,112,562,112,481" style="stroke: #000000; stroke-width: 2.0;"/>
        <line style="stroke: #000000; stroke-width: 2.0;" x1="112" x2="313" y1="503.4883" y2="503.4883"/>
        <text fill="#000000" font-family="sans-serif" font-size="14" font-weight="bold" lengthAdjust="spacingAndGlyphs" textLength="188" x="116" y="496.5352">Compiled Experiment App</text>
        <path d="M416,613 C416,610 418,608 421,608 C424,608 426,610 426,613 C426,610 428,608 431,608 C434,608 436,610 436,613 C436,610 438,608 441,608 C444,608 446,610 446,613 C446,610 448,608 451,608 C454,608 456,610 456,613 C456,610 458,608 461,608 C464,608 466,610 466,613 C466,610 468,608 471,608 C474,608 476,610 476,613 C476,610 478,608 481,608 C484,608 486,610 486,613 C486,610 488,608 491,608 C494,608 496,610 496,613 C496,610 498,608 501,608 C504,608 506,610 506,613 C506,610 508,608 511,608 C514,608 516,610 516,613 C519,613 521,615 521,618 C521,621 519,623 516,623 C519,623 521,625 521,628 C521,631 519,633 516,633 C519,633 521,635 521,638 C521,641 519,643 516,643 C519,643 521,645 521,648 C521,651 519,653 516,653 C516,656 513,658 511,658 C508,658 506,656 506,653 C506,656 503,658 501,658 C498,658 496,656 496,653 C496,656 493,658 491,658 C488,658 486,656 486,653 C486,656 483,658 481,658 C478,658 476,656 476,653 C476,656 473,658 471,658 C468,658 466,656 466,653 C466,656 463,658 461,658 C458,658 456,656 456,653 C456,656 453,658 451,658 C448,658 446,656 446,653 C446,656 443,658 441,658 C438,658 436,656 436,653 C436,656 433,658 431,658 C428,658 426,656 426,653 C426,656 423,658 421,658 C418,658 416,656 416,653 C413,653 411,651 411,648 C411,645 413,643 416,643 C413,643 411,641 411,638 C411,635 413,633 416,633 C413,633 411,631 411,628 C411,625 413,623 416,623 C413,623 411,621 411,618 C411,615 413,613 416,613 " fill="#FFFFFF" filter="url(#f1)" style="stroke: #000000; stroke-width: 2.0;"/>
        <path d="M365,830 C365,827 367,825 370,825 C373,825 375,827 375,830 C375,827 377,825 380,825 C383,825 385,827 385,830 C385,827 387,825 390,825 C393,825 395,827 395,830 C395,827 397,825 400,825 C403,825 405,827 405,830 C405,827 407,825 410,825 C413,825 415,827 415,830 C415,827 417,825 420,825 C423,825 425,827 425,830 C425,827 427,825 430,825 C433,825 435,827 435,830 C435,827 437,825 440,825 C443,825 445,827 445,830 C445,827 447,825 450,825 C453,825 455,827 455,830 C455,827 457,825 460,825 C463,825 465,827 465,830 C465,827 467,825 470,825 C473,825 475,827 475,830 C475,827 477,825 480,825 C483,825 485,827 485,830 C485,827 487,825 490,825 C493,825 495,827 495,830 C495,827 497,825 500,825 C503,825 505,827 505,830 C505,827 507,825 510,825 C513,825 515,827 515,830 C515,827 517,825 520,825 C523,825 525,827 525,830 C525,827 527,825 530,825 C533,825 535,827 535,830 C535,827 537,825 540,825 C543,825 545,827 545,830 C545,827 547,825 550,825 C553,825 555,827 555,830 C555,827 557,825 560,825 C563,825 565,827 565,830 C565,827 567,825 570,825 C573,825 575,827 575,830 C575,827 577,825 580,825 C583,825 585,827 585,830 C585,827 587,825 590,825 C593,825 595,827 595,830 C595,827 597,825 600,825 C603,825 605,827 605,830 C605,827 607,825 610,825 C613,825 615,827 615,830 C615,827 617,825 620,825 C623,825 625,827 625,830 C625,827 627,825 630,825 C633,825 635,827 635,830 C635,827 637,825 640,825 C643,825 645,827 645,830 C645,827 647,825 650,825 C653,825 655,827 655,830 C655,827 657,825 660,825 C663,825 665,827 665,830 C665,827 667,825 670,825 C673,825 675,827 675,830 C675,827 677,825 680,825 C683,825 685,827 685,830 C685,827 687,825 690,825 C693,825 695,827 695,830 C695,827 697,825 700,825 C703,825 705,827 705,830 C705,827 707,825 710,825 C713,825 715,827 715,830 C715,827 717,825 720,825 C723,825 725,827 725,830 C725,827 727,825 730,825 C733,825 735,827 735,830 C735,827 737,825 740,825 C743,825 745,827 745,830 C745,827 747,825 750,825 C753,825 755,827 755,830 C755,827 757,825 760,825 C763,825 765,827 765,830 C765,827 767,825 770,825 C773,825 775,827 775,830 C775,827 777,825 780,825 C783,825 785,827 785,830 C785,827 787,825 790,825 C793,825 795,827 795,830 C795,827 797,825 800,825 C803,825 805,827 805,830 C805,827 807,825 810,825 C813,825 815,827 815,830 C815,827 817,825 820,825 C823,825 825,827 825,830 C825,827 827,825 830,825 C833,825 835,827 835,830 C835,827 837,825 840,825 C843,825 845,827 845,830 C845,827 847,825 850,825 C853,825 855,827 855,830 C855,827 857,825 860,825 C863,825 865,827 865,830 C865,827 867,825 870,825 C873,825 875,827 875,830 C875,827 877,825 880,825 C883,825 885,827 885,830 C885,827 887,825 890,825 C893,825 895,827 895,830 C895,827 897,825 900,825 C903,825 905,827 905,830 C905,827 907,825 910,825 C913,825 915,827 915,830 C915,827 917,825 920,825 C923,825 925,827 925,830 C925,827 927,825 930,825 C933,825 935,827 935,830 C935,827 937,825 940,825 C943,825 945,827 945,830 C945,827 947,825 950,825 C953,825 955,827 955,830 C955,827 957,825 960,825 C963,825 965,827 965,830 C965,827 967,825 970,825 C973,825 975,827 975,830 C975,827 977,825 980,825 C983,825 985,827 985,830 C985,827 987,825 990,825 C993,825 995,827 995,830 C995,827 997,825 1000,825 C1003,825 1005,827 1005,830 C1005,827 1007,825 1010,825 C1013,825 1015,827 1015,830 C1015,827 1017,825 1020,825 C1023,825 1025,827 1025,830 C1025,827 1027,825 1030,825 C1033,825 1035,827 1035,830 C1035,827 1037,825 1040,825 C1043,825 1045,827 1045,830 C1048,830 1050,832 1050,835 C1050,838 1048,840 1045,840 C1048,840 1050,842 1050,845 C1050,848 1048,850 1045,850 C1048,850 1050,852 1050,855 C1050,858 1048,860 1045,860 C1048,860 1050,862 1050,865 C1050,868 1048,870 1045,870 C1045,873 1042,875 1040,875 C1037,875 1035,873 1035,870 C1035,873 1032,875 1030,875 C1027,875 1025,873 1025,870 C1025,873 1022,875 1020,875 C1017,875 1015,873 1015,870 C1015,873 1012,875 1010,875 C1007,875 1005,873 1005,870 C1005,873 1002,875 1000,875 C997,875 995,873 995,870 C995,873 992,875 990,875 C987,875 985,873 985,870 C985,873 982,875 980,875 C977,875 975,873 975,870 C975,873 972,875 970,875 C967,875 965,873 965,870 C965,873 962,875 960,875 C957,875 955,873 955,870 C955,873 952,875 950,875 C947,875 945,873 945,870 C945,873 942,875 940,875 C937,875 935,873 935,870 C935,873 932,875 930,875 C927,875 925,873 925,870 C925,873 922,875 920,875 C917,875 915,873 915,870 C915,873 912,875 910,875 C907,875 905,873 905,870 C905,873 902,875 900,875 C897,875 895,873 895,870 C895,873 892,875 890,875 C887,875 885,873 885,870 C885,873 882,875 880,875 C877,875 875,873 875,870 C875,873 872,875 870,875 C867,875 865,873 865,870 C865,873 862,875 860,875 C857,875 855,873 855,870 C855,873 852,875 850,875 C847,875 845,873 845,870 C845,873 842,875 840,875 C837,875 835,873 835,870 C835,873 832,875 830,875 C827,875 825,873 825,870 C825,873 822,875 820,875 C817,875 815,873 815,870 C815,873 812,875 810,875 C807,875 805,873 805,870 C805,873 802,875 800,875 C797,875 795,873 795,870 C795,873 792,875 790,875 C787,875 785,873 785,870 C785,873 782,875 780,875 C777,875 775,873 775,870 C775,873 772,875 770,875 C767,875 765,873 765,870 C765,873 762,875 760,875 C757,875 755,873 755,870 C755,873 752,875 750,875 C747,875 745,873 745,870 C745,873 742,875 740,875 C737,875 735,873 735,870 C735,873 732,875 730,875 C727,875 725,873 725,870 C725,873 722,875 720,875 C717,875 715,873 715,870 C715,873 712,875 710,875 C707,875 705,873 705,870 C705,873 702,875 700,875 C697,875 695,873 695,870 C695,873 692,875 690,875 C687,875 685,873 685,870 C685,873 682,875 680,875 C677,875 675,873 675,870 C675,873 672,875 670,875 C667,875 665,873 665,870 C665,873 662,875 660,875 C657,875 655,873 655,870 C655,873 652,875 650,875 C647,875 645,873 645,870 C645,873 642,875 640,875 C637,875 635,873 635,870 C635,873 632,875 630,875 C627,875 625,873 625,870 C625,873 622,875 620,875 C617,875 615,873 615,870 C615,873 612,875 610,875 C607,875 605,873 605,870 C605,873 602,875 600,875 C597,875 595,873 595,870 C595,873 592,875 590,875 C587,875 585,873 585,870 C585,873 582,875 580,875 C577,875 575,873 575,870 C575,873 572,875 570,875 C567,875 565,873 565,870 C565,873 562,875 560,875 C557,875 555,873 555,870 C555,873 552,875 550,875 C547,875 545,873 545,870 C545,873 542,875 540,875 C537,875 535,873 535,870 C535,873 532,875 530,875 C527,875 525,873 525,870 C525,873 522,875 520,875 C517,875 515,873 515,870 C515,873 512,875 510,875 C507,875 505,873 505,870 C505,873 502,875 500,875 C497,875 495,873 495,870 C495,873 492,875 490,875 C487,875 485,873 485,870 C485,873 482,875 480,875 C477,875 475,873 475,870 C475,873 472,875 470,875 C467,875 465,873 465,870 C465,873 462,875 460,875 C457,875 455,873 455,870 C455,873 452,875 450,875 C447,875 445,873 445,870 C445,873 442,875 440,875 C437,875 435,873 435,870 C435,873 432,875 430,875 C427,875 425,873 425,870 C425,873 422,875 420,875 C417,875 415,873 415,870 C415,873 412,875 410,875 C407,875 405,873 405,870 C405,873 402,875 400,875 C397,875 395,873 395,870 C395,873 392,875 390,875 C387,875 385,873 385,870 C385,873 382,875 380,875 C377,875 375,873 375,870 C375,873 372,875 370,875 C367,875 365,873 365,870 C362,870 360,868 360,865 C360,862 362,860 365,860 C362,860 360,858 360,855 C360,852 362,850 365,850 C362,850 360,848 360,845 C360,842 362,840 365,840 C362,840 360,838 360,835 C360,832 362,830 365,830 " fill="#FFFFFF" filter="url(#f1)" style="stroke: #000000; stroke-width: 2.0;"/>
        <polygon fill="#FFFFFF" filter="url(#f1)" points="356,666,539,666,546,688.4883,773,688.4883,773,787,356,787,356,666" style="stroke: #000000; stroke-width: 2.0;"/>
        <line style="stroke: #000000; stroke-width: 2.0;" x1="356" x2="546" y1="688.4883" y2="688.4883"/>
        <text fill="#000000" font-family="sans-serif" font-size="14" font-weight="bold" lengthAdjust="spacingAndGlyphs" textLength="177" x="360" y="681.5352">Compiled Reporting War</text>
        <path d="M597,703 C597,693 681,693 681,693 C681,693 765,693 765,703 L765,769 C765,779 681,779 681,779 C681,779 597,779 597,769 L597,703 " fill="#FFFFFF" filter="url(#f1)" style="stroke: #000000; stroke-width: 2.0;"/>
        <path d="M597,703 C597,713 681,713 681,713 C681,713 765,713 765,703 " fill="none" style="stroke: #000000; stroke-width: 2.0;"/>
        <text fill="#000000" font-family="sans-serif" font-size="14" font-weight="bold" lengthAdjust="spacingAndGlyphs" textLength="103" x="629.5" y="727.5352">Production DB</text>
        <rect fill="#FEFECE" filter="url(#f1)" height="36.4883" style="stroke: #A80036; stroke-width: 1.5;" width="109" x="438.5" y="168"/>
        <rect fill="#FEFECE" height="5" style="stroke: #A80036; stroke-width: 1.5;" width="10" x="433.5" y="173"/>
        <rect fill="#FEFECE" height="5" style="stroke: #A80036; stroke-width: 1.5;" width="10" x="433.5" y="194.4883"/>
        <text fill="#000000" font-family="sans-serif" font-size="14" lengthAdjust="spacingAndGlyphs" textLength="89" x="448.5" y="191.5352">Thymeleaf UI</text>
        <rect fill="#FEFECE" filter="url(#f1)" height="36.4883" style="stroke: #A80036; stroke-width: 1.5;" width="130" x="583" y="168"/>
        <rect fill="#FEFECE" height="5" style="stroke: #A80036; stroke-width: 1.5;" width="10" x="578" y="173"/>
        <rect fill="#FEFECE" height="5" style="stroke: #A80036; stroke-width: 1.5;" width="10" x="578" y="194.4883"/>
        <text fill="#000000" font-family="sans-serif" font-size="14" lengthAdjust="spacingAndGlyphs" textLength="110" x="593" y="191.5352">Spring Web App</text>
        <polygon fill="#FEFECE" filter="url(#f1)" points="238.5,173,248.5,163,403.5,163,403.5,199.4883,393.5,209.4883,238.5,209.4883,238.5,173" style="stroke: #A80036; stroke-width: 1.5;"/>
        <line style="stroke: #A80036; stroke-width: 1.5;" x1="393.5" x2="402.5" y1="173" y2="164"/>
        <line style="stroke: #A80036; stroke-width: 1.5;" x1="238.5" x2="393.5" y1="173" y2="173"/>
        <line style="stroke: #A80036; stroke-width: 1.5;" x1="393.5" x2="393.5" y1="173" y2="209.4883"/>
        <text fill="#000000" font-family="sans-serif" font-size="14" lengthAdjust="spacingAndGlyphs" textLength="125" x="253.5" y="196.5352">Stimuli Definitions</text>
        <polygon fill="#FEFECE" filter="url(#f1)" points="22.5,173,32.5,163,203.5,163,203.5,199.4883,193.5,209.4883,22.5,209.4883,22.5,173" style="stroke: #A80036; stroke-width: 1.5;"/>
        <line style="stroke: #A80036; stroke-width: 1.5;" x1="193.5" x2="202.5" y1="173" y2="164"/>
        <line style="stroke: #A80036; stroke-width: 1.5;" x1="22.5" x2="193.5" y1="173" y2="173"/>
        <line style="stroke: #A80036; stroke-width: 1.5;" x1="193.5" x2="193.5" y1="173" y2="209.4883"/>
        <text fill="#000000" font-family="sans-serif" font-size="14" lengthAdjust="spacingAndGlyphs" textLength="141" x="37.5" y="196.5352">Metadata Definitions</text>
        <rect fill="#FEFECE" filter="url(#f1)" height="36.4883" style="stroke: #A80036; stroke-width: 1.5;" width="170" x="748" y="168"/>
        <rect fill="#FEFECE" height="5" style="stroke: #A80036; stroke-width: 1.5;" width="10" x="743" y="173"/>
        <rect fill="#FEFECE" height="5" style="stroke: #A80036; stroke-width: 1.5;" width="10" x="743" y="194.4883"/>
        <text fill="#000000" font-family="sans-serif" font-size="14" lengthAdjust="spacingAndGlyphs" textLength="150" x="758" y="191.5352">Experiment Definition</text>
        <rect fill="#FEFECE" filter="url(#f1)" height="36.4883" style="stroke: #A80036; stroke-width: 1.5;" width="173" x="561.5" y="269"/>
        <rect fill="#FEFECE" height="5" style="stroke: #A80036; stroke-width: 1.5;" width="10" x="556.5" y="274"/>
        <rect fill="#FEFECE" height="5" style="stroke: #A80036; stroke-width: 1.5;" width="10" x="556.5" y="295.4883"/>
        <text fill="#000000" font-family="sans-serif" font-size="14" lengthAdjust="spacingAndGlyphs" textLength="153" x="571.5" y="292.5352">XML Configuration file</text>
        <rect fill="#FEFECE" filter="url(#f1)" height="36.4883" style="stroke: #A80036; stroke-width: 1.5;" width="139" x="578.5" y="388.5"/>
        <rect fill="#FEFECE" height="5" style="stroke: #A80036; stroke-width: 1.5;" width="10" x="573.5" y="393.5"/>
        <rect fill="#FEFECE" height="5" style="stroke: #A80036; stroke-width: 1.5;" width="10" x="573.5" y="414.9883"/>
        <text fill="#000000" font-family="sans-serif" font-size="14" lengthAdjust="spacingAndGlyphs" textLength="119" x="588.5" y="412.0352">XSLT transformer</text>
        <polygon fill="#FEFECE" filter="url(#f1)" points="753,393.5,763,383.5,851,383.5,851,419.9883,841,429.9883,753,429.9883,753,393.5" style="stroke: #A80036; stroke-width: 1.5;"/>
        <line style="stroke: #A80036; stroke-width: 1.5;" x1="841" x2="850" y1="393.5" y2="384.5"/>
        <line style="stroke: #A80036; stroke-width: 1.5;" x1="753" x2="841" y1="393.5" y2="393.5"/>
        <line style="stroke: #A80036; stroke-width: 1.5;" x1="841" x2="841" y1="393.5" y2="429.9883"/>
        <text fill="#000000" font-family="sans-serif" font-size="14" lengthAdjust="spacingAndGlyphs" textLength="58" x="768" y="417.0352">Cordova</text>
        <polygon fill="#FEFECE" filter="url(#f1)" points="886,393.5,896,383.5,1022,383.5,1022,419.9883,1012,429.9883,886,429.9883,886,393.5" style="stroke: #A80036; stroke-width: 1.5;"/>
        <line style="stroke: #A80036; stroke-width: 1.5;" x1="1012" x2="1021" y1="393.5" y2="384.5"/>
        <line style="stroke: #A80036; stroke-width: 1.5;" x1="886" x2="1012" y1="393.5" y2="393.5"/>
        <line style="stroke: #A80036; stroke-width: 1.5;" x1="1012" x2="1012" y1="393.5" y2="429.9883"/>
        <text fill="#000000" font-family="sans-serif" font-size="14" lengthAdjust="spacingAndGlyphs" textLength="96" x="901" y="417.0352">HTML5 JQuery</text>
        <polygon fill="#FEFECE" filter="url(#f1)" points="1057,393.5,1067,383.5,1199,383.5,1199,419.9883,1189,429.9883,1057,429.9883,1057,393.5" style="stroke: #A80036; stroke-width: 1.5;"/>
        <line style="stroke: #A80036; stroke-width: 1.5;" x1="1189" x2="1198" y1="393.5" y2="384.5"/>
        <line style="stroke: #A80036; stroke-width: 1.5;" x1="1057" x2="1189" y1="393.5" y2="393.5"/>
        <line style="stroke: #A80036; stroke-width: 1.5;" x1="1189" x2="1189" y1="393.5" y2="429.9883"/>
        <text fill="#000000" font-family="sans-serif" font-size="14" lengthAdjust="spacingAndGlyphs" textLength="102" x="1072" y="417.0352">Native Android</text>
        <polygon fill="#FEFECE" filter="url(#f1)" points="753.5,518,763.5,508,930.5,508,930.5,544.4883,920.5,554.4883,753.5,554.4883,753.5,518" style="stroke: #A80036; stroke-width: 1.5;"/>
        <line style="stroke: #A80036; stroke-width: 1.5;" x1="920.5" x2="929.5" y1="518" y2="509"/>
        <line style="stroke: #A80036; stroke-width: 1.5;" x1="753.5" x2="920.5" y1="518" y2="518"/>
        <line style="stroke: #A80036; stroke-width: 1.5;" x1="920.5" x2="920.5" y1="518" y2="554.4883"/>
        <text fill="#000000" font-family="sans-serif" font-size="14" lengthAdjust="spacingAndGlyphs" textLength="137" x="768.5" y="541.5352">Native iOS Template</text>
        <polygon fill="#FEFECE" filter="url(#f1)" points="965.5,518,975.5,508,1056.5,508,1056.5,544.4883,1046.5,554.4883,965.5,554.4883,965.5,518" style="stroke: #A80036; stroke-width: 1.5;"/>
        <line style="stroke: #A80036; stroke-width: 1.5;" x1="1046.5" x2="1055.5" y1="518" y2="509"/>
        <line style="stroke: #A80036; stroke-width: 1.5;" x1="965.5" x2="1046.5" y1="518" y2="518"/>
        <line style="stroke: #A80036; stroke-width: 1.5;" x1="1046.5" x2="1046.5" y1="518" y2="554.4883"/>
        <text fill="#000000" font-family="sans-serif" font-size="14" lengthAdjust="spacingAndGlyphs" textLength="51" x="980.5" y="541.5352">Other...</text>
        <rect fill="#FEFECE" filter="url(#f1)" height="36.4883" style="stroke: #A80036; stroke-width: 1.5;" width="173" x="380.5" y="513"/>
        <rect fill="#FEFECE" height="5" style="stroke: #A80036; stroke-width: 1.5;" width="10" x="375.5" y="518"/>
        <rect fill="#FEFECE" height="5" style="stroke: #A80036; stroke-width: 1.5;" width="10" x="375.5" y="539.4883"/>
        <text fill="#000000" font-family="sans-serif" font-size="14" lengthAdjust="spacingAndGlyphs" textLength="153" x="390.5" y="536.5352">Experiment Controller</text>
        <polygon fill="#FEFECE" filter="url(#f1)" points="258.5,518,268.5,508,345.5,508,345.5,544.4883,335.5,554.4883,258.5,554.4883,258.5,518" style="stroke: #A80036; stroke-width: 1.5;"/>
        <line style="stroke: #A80036; stroke-width: 1.5;" x1="335.5" x2="344.5" y1="518" y2="509"/>
        <line style="stroke: #A80036; stroke-width: 1.5;" x1="258.5" x2="335.5" y1="518" y2="518"/>
        <line style="stroke: #A80036; stroke-width: 1.5;" x1="335.5" x2="335.5" y1="518" y2="554.4883"/>
        <text fill="#000000" font-family="sans-serif" font-size="14" lengthAdjust="spacingAndGlyphs" textLength="47" x="273.5" y="541.5352">Stimuli</text>
        <polygon fill="#FEFECE" filter="url(#f1)" points="120.5,518,130.5,508,223.5,508,223.5,544.4883,213.5,554.4883,120.5,554.4883,120.5,518" style="stroke: #A80036; stroke-width: 1.5;"/>
        <line style="stroke: #A80036; stroke-width: 1.5;" x1="213.5" x2="222.5" y1="518" y2="509"/>
        <line style="stroke: #A80036; stroke-width: 1.5;" x1="120.5" x2="213.5" y1="518" y2="518"/>
        <line style="stroke: #A80036; stroke-width: 1.5;" x1="213.5" x2="213.5" y1="518" y2="554.4883"/>
        <text fill="#000000" font-family="sans-serif" font-size="14" lengthAdjust="spacingAndGlyphs" textLength="63" x="135.5" y="541.5352">Metadata</text>
        <rect fill="#FEFECE" filter="url(#f1)" height="36.4883" style="stroke: #A80036; stroke-width: 1.5;" width="91" x="421.5" y="614"/>
        <rect fill="#FEFECE" height="5" style="stroke: #A80036; stroke-width: 1.5;" width="10" x="416.5" y="619"/>
        <rect fill="#FEFECE" height="5" style="stroke: #A80036; stroke-width: 1.5;" width="10" x="416.5" y="640.4883"/>
        <text fill="#000000" font-family="sans-serif" font-size="14" lengthAdjust="spacingAndGlyphs" textLength="71" x="431.5" y="637.5352">JSON REST</text>
        <rect fill="#FEFECE" filter="url(#f1)" height="36.4883" style="stroke: #A80036; stroke-width: 1.5;" width="194" x="370" y="831"/>
        <rect fill="#FEFECE" height="5" style="stroke: #A80036; stroke-width: 1.5;" width="10" x="365" y="836"/>
        <rect fill="#FEFECE" height="5" style="stroke: #A80036; stroke-width: 1.5;" width="10" x="365" y="857.4883"/>
        <text fill="#000000" font-family="sans-serif" font-size="14" lengthAdjust="spacingAndGlyphs" textLength="174" x="380" y="854.5352">JSON REST Results Access</text>
        <rect fill="#FEFECE" filter="url(#f1)" height="36.4883" style="stroke: #A80036; stroke-width: 1.5;" width="173" x="599.5" y="831"/>
        <rect fill="#FEFECE" height="5" style="stroke: #A80036; stroke-width: 1.5;" width="10" x="594.5" y="836"/>
        <rect fill="#FEFECE" height="5" style="stroke: #A80036; stroke-width: 1.5;" width="10" x="594.5" y="857.4883"/>
        <text fill="#000000" font-family="sans-serif" font-size="14" lengthAdjust="spacingAndGlyphs" textLength="153" x="609.5" y="854.5352">CSV Results Download</text>
        <rect fill="#FEFECE" filter="url(#f1)" height="36.4883" style="stroke: #A80036; stroke-width: 1.5;" width="233" x="807.5" y="831"/>
        <rect fill="#FEFECE" height="5" style="stroke: #A80036; stroke-width: 1.5;" width="10" x="802.5" y="836"/>
        <rect fill="#FEFECE" height="5" style="stroke: #A80036; stroke-width: 1.5;" width="10" x="802.5" y="857.4883"/>
        <text fill="#000000" font-family="sans-serif" font-size="14" lengthAdjust="spacingAndGlyphs" textLength="213" x="817.5" y="854.5352">Comiled Experiment Download</text>
        <rect fill="#FEFECE" filter="url(#f1)" height="36.4883" style="stroke: #A80036; stroke-width: 1.5;" width="205" x="364.5" y="735"/>
        <rect fill="#FEFECE" height="5" style="stroke: #A80036; stroke-width: 1.5;" width="10" x="359.5" y="740"/>
        <rect fill="#FEFECE" height="5" style="stroke: #A80036; stroke-width: 1.5;" width="10" x="359.5" y="761.4883"/>
        <text fill="#000000" font-family="sans-serif" font-size="14" lengthAdjust="spacingAndGlyphs" textLength="185" x="374.5" y="758.5352">Experiment Administration</text>
        <rect fill="#FEFECE" filter="url(#f1)" height="36.4883" style="stroke: #A80036; stroke-width: 1.5;" width="152" x="605" y="735"/>
        <rect fill="#FEFECE" height="5" style="stroke: #A80036; stroke-width: 1.5;" width="10" x="600" y="740"/>
        <rect fill="#FEFECE" height="5" style="stroke: #A80036; stroke-width: 1.5;" width="10" x="600" y="761.4883"/>
        <text fill="#000000" font-family="sans-serif" font-size="14" lengthAdjust="spacingAndGlyphs" textLength="132" x="615" y="758.5352">Experiment Results</text>
        <ellipse cx="686" cy="1033" fill="#FEFECE" filter="url(#f1)" rx="8" ry="8" style="stroke: #A80036; stroke-width: 2.0;"/>
        <path d="M686,1041 L686,1068 M673,1049 L699,1049 M686,1068 L673,1083 M686,1068 L699,1083 " fill="#FEFECE" filter="url(#f1)" style="stroke: #A80036; stroke-width: 2.0;"/>
        <text fill="#000000" font-family="sans-serif" font-size="14" lengthAdjust="spacingAndGlyphs" textLength="76" x="648" y="1103.5352">Researcher</text>
        <rect fill="#FEFECE" filter="url(#f1)" height="36.4883" style="stroke: #A80036; stroke-width: 1.5;" width="29" x="528.5" y="927"/>
        <rect fill="#FEFECE" height="5" style="stroke: #A80036; stroke-width: 1.5;" width="10" x="523.5" y="932"/>
        <rect fill="#FEFECE" height="5" style="stroke: #A80036; stroke-width: 1.5;" width="10" x="523.5" y="953.4883"/>
        <text fill="#000000" font-family="sans-serif" font-size="14" lengthAdjust="spacingAndGlyphs" textLength="9" x="538.5" y="950.5352">R</text>
        <ellipse cx="493" cy="18" fill="#FEFECE" filter="url(#f1)" rx="8" ry="8" style="stroke: #A80036; stroke-width: 2.0;"/>
        <path d="M493,26 L493,53 M480,34 L506,34 M493,53 L480,68 M493,53 L506,68 " fill="#FEFECE" filter="url(#f1)" style="stroke: #A80036; stroke-width: 2.0;"/>
        <text fill="#000000" font-family="sans-serif" font-size="14" lengthAdjust="spacingAndGlyphs" textLength="61" x="462.5" y="88.5352">Designer</text>
        <ellipse cx="467" cy="375" fill="#FEFECE" filter="url(#f1)" rx="8" ry="8" style="stroke: #A80036; stroke-width: 2.0;"/>
        <path d="M467,383 L467,410 M454,391 L480,391 M467,410 L454,425 M467,410 L480,425 " fill="#FEFECE" filter="url(#f1)" style="stroke: #A80036; stroke-width: 2.0;"/>
        <text fill="#000000" font-family="sans-serif" font-size="14" lengthAdjust="spacingAndGlyphs" textLength="73" x="430.5" y="445.5352">Participant</text>
        <path d="M547.795,186 C559.407,186 571.02,186 582.632,186 " fill="none" style="stroke: #A80036; stroke-width: 1.0;"/>
        <path d="M904.926,867.111 C866.762,901.346 780.205,978.992 728.087,1025.7455 " fill="none" style="stroke: #A80036; stroke-width: 1.0;"/>
        <polygon fill="#A80036" points="724.085,1029.3354,733.4555,1026.3034,727.807,1025.9967,728.1136,1020.3482,724.085,1029.3354" style="stroke: #A80036; stroke-width: 1.0;"/>
        <path d="M686,867.111 C686,899.476 686,970.637 686,1017.8173 " fill="none" style="stroke: #A80036; stroke-width: 1.0;"/>
        <polygon fill="#A80036" points="686,1022.8761,690,1013.8761,686,1017.8761,682,1013.8761,686,1022.8761" style="stroke: #A80036; stroke-width: 1.0;"/>
        <path d="M557.765,958.132 C577.912,974.686 614.831,1005.022 643.9,1028.907 " fill="none" style="stroke: #A80036; stroke-width: 1.0;"/>
        <polygon fill="#A80036" points="647.765,1032.0833,643.3508,1023.2791,643.9019,1028.909,638.2719,1029.4601,647.765,1032.0833" style="stroke: #A80036; stroke-width: 1.0;"/>
        <path d="M493,91.22 C493,114.683 493,143.278 493,162.679 " fill="none" style="stroke: #A80036; stroke-width: 1.0;"/>
        <polygon fill="#A80036" points="493,167.895,497,158.895,493,162.895,489,158.895,493,167.895" style="stroke: #A80036; stroke-width: 1.0;"/>
        <path d="M480.94,867.241 C493.581,882.877 512.258,905.977 525.818,922.749 " fill="none" style="stroke: #A80036; stroke-width: 1.0;"/>
        <polygon fill="#A80036" points="529.149,926.868,526.6026,917.354,526.0061,922.9793,520.3807,922.3827,529.149,926.868" style="stroke: #A80036; stroke-width: 1.0;"/>
        <path d="M648,204.244 C648,222.415 648,250.857 648,268.953 " fill="none" style="stroke: #A80036; stroke-width: 1.0;"/>
        <path d="M648,305.086 C648,325.709 648,360.446 648,383.173 " fill="none" style="stroke: #A80036; stroke-width: 1.0;"/>
        <polygon fill="#A80036" points="648,388.394,652,379.394,648,383.394,644,379.394,648,388.394" style="stroke: #A80036; stroke-width: 1.0;"/>
        <path d="M622.833,424.533 C589.696,446.96 531.538,486.321 496.411,510.095 " fill="none" style="stroke: #A80036; stroke-width: 1.0;"/>
        <polygon fill="#A80036" points="492.245,512.915,501.9405,511.184,496.386,510.1129,497.4571,504.5584,492.245,512.915" style="stroke: #A80036; stroke-width: 1.0;"/>
        <path d="M467,549.244 C467,565.712 467,590.615 467,608.608 " fill="none" style="stroke: #A80036; stroke-width: 1.0;"/>
        <polygon fill="#A80036" points="467,613.953,471,604.953,467,608.953,463,604.953,467,613.953" style="stroke: #A80036; stroke-width: 1.0;"/>
        <path d="M467,448.291 C467,468.051 467,491.02 467,507.564 " fill="none" style="stroke: #A80036; stroke-width: 1.0;"/>
        <polygon fill="#A80036" points="467,512.915,471,503.915,467,507.915,463,503.915,467,512.915" style="stroke: #A80036; stroke-width: 1.0;"/>
        <path d="M467,650.05 C467,671.081 467,706.877 467,729.972 " fill="none" style="stroke: #A80036; stroke-width: 1.0;"/>
        <polygon fill="#A80036" points="467,734.982,471,725.982,467,729.982,463,725.982,467,734.982" style="stroke: #A80036; stroke-width: 1.0;"/>
        <path d="M467,771.241 C467,788.202 467,813.945 467,830.868 " fill="none" style="stroke: #A80036; stroke-width: 1.0;"/>
    </g>
</svg>
