<?xml version="1.0" encoding="UTF-8"?><svg xmlns="http://www.w3.org/2000/svg" xmlns:xlink="http://www.w3.org/1999/xlink" height="305pt" style="width:249px;height:305px;" version="1.1" viewBox="0 0 249 305" width="249pt">
    <defs>
        <filter height="300%" id="f1" width="300%" x="-1" y="-1">
            <feGaussianBlur result="blurOut" stdDeviation="2.0"/>
            <feColorMatrix in="blurOut" result="blurOut2" type="matrix" values="0 0 0 0 0 0 0 0 0 0 0 0 0 0 0 0 0 0 .4 0"/>
            <feOffset dx="4.0" dy="4.0" in="blurOut2" result="blurOut3"/>
            <feBlend in="SourceGraphic" in2="blurOut3" mode="normal"/>
        </filter>
    </defs>
    <g>
        <ellipse cx="126" cy="20" fill="#000000" filter="url(#f1)" rx="10" ry="10" style="stroke: none; stroke-width: 1.0;"/>
        <rect fill="#FEFECE" filter="url(#f1)" height="34.1328" rx="12.5" ry="12.5" style="stroke: #A80036; stroke-width: 1.5;" width="127" x="62.5" y="50"/>
        <text fill="#000000" font-family="sans-serif" font-size="12" lengthAdjust="spacingAndGlyphs" textLength="107" x="72.5" y="71.6016">Define Experiment</text>
        <rect fill="#FEFECE" filter="url(#f1)" height="34.1328" rx="12.5" ry="12.5" style="stroke: #A80036; stroke-width: 1.5;" width="131" x="60.5" y="104.1328"/>
        <text fill="#000000" font-family="sans-serif" font-size="12" lengthAdjust="spacingAndGlyphs" textLength="111" x="70.5" y="125.7344">Publish Experiment</text>
        <rect fill="#000000" filter="url(#f1)" height="6" rx="2.5" ry="2.5" style="stroke: #000000; stroke-width: 1.0;" width="232" x="10" y="158.2656"/>
        <rect fill="#FEFECE" filter="url(#f1)" height="34.1328" rx="12.5" ry="12.5" style="stroke: #A80036; stroke-width: 1.5;" width="44" x="24" y="184.2656"/>
        <text fill="#000000" font-family="sans-serif" font-size="12" lengthAdjust="spacingAndGlyphs" textLength="24" x="34" y="205.8672">web</text>
        <rect fill="#FEFECE" filter="url(#f1)" height="34.1328" rx="12.5" ry="12.5" style="stroke: #A80036; stroke-width: 1.5;" width="38" x="96" y="184.2656"/>
        <text fill="#000000" font-family="sans-serif" font-size="12" lengthAdjust="spacingAndGlyphs" textLength="18" x="106" y="205.8672">iOS</text>
        <rect fill="#FEFECE" filter="url(#f1)" height="34.1328" rx="12.5" ry="12.5" style="stroke: #A80036; stroke-width: 1.5;" width="66" x="162" y="184.2656"/>
        <text fill="#000000" font-family="sans-serif" font-size="12" lengthAdjust="spacingAndGlyphs" textLength="46" x="172" y="205.8672">Android</text>
        <rect fill="#000000" filter="url(#f1)" height="6" rx="2.5" ry="2.5" style="stroke: #000000; stroke-width: 1.0;" width="232" x="10" y="238.3984"/>
        <rect fill="#FEFECE" filter="url(#f1)" height="34.1328" rx="12.5" ry="12.5" style="stroke: #A80036; stroke-width: 1.5;" width="131" x="60.5" y="264.3984"/>
        <text fill="#000000" font-family="sans-serif" font-size="12" lengthAdjust="spacingAndGlyphs" textLength="111" x="70.5" y="286">Experiment Results</text>
        <line style="stroke: #A80036; stroke-width: 1.5;" x1="126" x2="126" y1="30" y2="50"/>
        <polygon fill="#A80036" points="122,40,126,50,130,40,126,44" style="stroke: #A80036; stroke-width: 1.0;"/>
        <line style="stroke: #A80036; stroke-width: 1.5;" x1="126" x2="126" y1="84.1328" y2="104.1328"/>
        <polygon fill="#A80036" points="122,94.1328,126,104.1328,130,94.1328,126,98.1328" style="stroke: #A80036; stroke-width: 1.0;"/>
        <line style="stroke: #A80036; stroke-width: 1.5;" x1="46" x2="46" y1="164.2656" y2="184.2656"/>
        <polygon fill="#A80036" points="42,174.2656,46,184.2656,50,174.2656,46,178.2656" style="stroke: #A80036; stroke-width: 1.0;"/>
        <line style="stroke: #A80036; stroke-width: 1.5;" x1="46" x2="46" y1="218.3984" y2="238.3984"/>
        <polygon fill="#A80036" points="42,228.3984,46,238.3984,50,228.3984,46,232.3984" style="stroke: #A80036; stroke-width: 1.0;"/>
        <line style="stroke: #A80036; stroke-width: 1.5;" x1="115" x2="115" y1="164.2656" y2="184.2656"/>
        <polygon fill="#A80036" points="111,174.2656,115,184.2656,119,174.2656,115,178.2656" style="stroke: #A80036; stroke-width: 1.0;"/>
        <line style="stroke: #A80036; stroke-width: 1.5;" x1="115" x2="115" y1="218.3984" y2="238.3984"/>
        <polygon fill="#A80036" points="111,228.3984,115,238.3984,119,228.3984,115,232.3984" style="stroke: #A80036; stroke-width: 1.0;"/>
        <line style="stroke: #A80036; stroke-width: 1.5;" x1="195" x2="195" y1="164.2656" y2="184.2656"/>
        <polygon fill="#A80036" points="191,174.2656,195,184.2656,199,174.2656,195,178.2656" style="stroke: #A80036; stroke-width: 1.0;"/>
        <line style="stroke: #A80036; stroke-width: 1.5;" x1="195" x2="195" y1="218.3984" y2="238.3984"/>
        <polygon fill="#A80036" points="191,228.3984,195,238.3984,199,228.3984,195,232.3984" style="stroke: #A80036; stroke-width: 1.0;"/>
        <line style="stroke: #A80036; stroke-width: 1.5;" x1="126" x2="126" y1="138.2656" y2="158.2656"/>
        <polygon fill="#A80036" points="122,148.2656,126,158.2656,130,148.2656,126,152.2656" style="stroke: #A80036; stroke-width: 1.0;"/>
        <line style="stroke: #A80036; stroke-width: 1.5;" x1="126" x2="126" y1="244.3984" y2="264.3984"/>
        <polygon fill="#A80036" points="122,254.3984,126,264.3984,130,254.3984,126,258.3984" style="stroke: #A80036; stroke-width: 1.0;"/>
    </g>
</svg>
